<svg width="20" height="20" viewBox="0 0 20 20" fill="none" xmlns="http://www.w3.org/2000/svg">
<path d="M9.99984 1.6665C8.90549 1.6665 7.82186 1.88205 6.81081 2.30084C5.79976 2.71963 4.8811 3.33346 4.10728 4.10728C2.54448 5.67008 1.6665 7.7897 1.6665 9.99984C1.6665 13.6832 4.05817 16.8082 7.3665 17.9165C7.78317 17.9832 7.9165 17.7248 7.9165 17.4998V16.0915C5.60817 16.5915 5.1165 14.9748 5.1165 14.9748C4.73317 14.0082 4.1915 13.7498 4.1915 13.7498C3.43317 13.2332 4.24984 13.2498 4.24984 13.2498C5.08317 13.3082 5.52484 14.1082 5.52484 14.1082C6.24984 15.3748 7.47484 14.9998 7.94984 14.7998C8.02484 14.2582 8.2415 13.8915 8.47484 13.6832C6.62484 13.4748 4.68317 12.7582 4.68317 9.58317C4.68317 8.65817 4.99984 7.9165 5.5415 7.32484C5.45817 7.1165 5.1665 6.24984 5.62484 5.12484C5.62484 5.12484 6.32484 4.89984 7.9165 5.97484C8.57484 5.7915 9.2915 5.69984 9.99984 5.69984C10.7082 5.69984 11.4248 5.7915 12.0832 5.97484C13.6748 4.89984 14.3748 5.12484 14.3748 5.12484C14.8332 6.24984 14.5415 7.1165 14.4582 7.32484C14.9998 7.9165 15.3165 8.65817 15.3165 9.58317C15.3165 12.7665 13.3665 13.4665 11.5082 13.6748C11.8082 13.9332 12.0832 14.4415 12.0832 15.2165V17.4998C12.0832 17.7248 12.2165 17.9915 12.6415 17.9165C15.9498 16.7998 18.3332 13.6832 18.3332 9.99984C18.3332 8.90549 18.1176 7.82186 17.6988 6.81081C17.28 5.79976 16.6662 4.8811 15.8924 4.10728C15.1186 3.33346 14.1999 2.71963 13.1889 2.30084C12.1778 1.88205 11.0942 1.6665 9.99984 1.6665Z" fill="#555555"/>
</svg>
