<svg width="346" height="80" viewBox="0 0 346 80" fill="none" xmlns="http://www.w3.org/2000/svg">
<path d="M176.989 64L163.108 16.8162H176.924L183.572 46.3386H183.963L191.718 16.8162H202.667L210.487 46.469H210.878L217.526 16.8162H231.342L217.461 64H205.534L197.388 37.0192H196.997L188.85 64H176.989ZM233.706 64V28.6121H246.024V64H233.706ZM239.833 24.767C236.444 24.767 233.706 22.2253 233.706 19.0971C233.706 15.9689 236.444 13.4273 239.833 13.4273C243.221 13.4273 245.959 15.9689 245.959 19.0971C245.959 22.2253 243.221 24.767 239.833 24.767ZM250.604 64V16.8162H262.921V40.7339H263.378L272.306 28.6121H286.187L274.066 44.1228L286.578 64H272.436L264.942 51.2916L262.921 53.7681V64H250.604ZM287.705 64V28.6121H300.022V64H287.705ZM293.831 24.767C290.442 24.767 287.705 22.2253 287.705 19.0971C287.705 15.9689 290.442 13.4273 293.831 13.4273C297.22 13.4273 299.957 15.9689 299.957 19.0971C299.957 22.2253 297.22 24.767 293.831 24.767Z" fill="#007DF0"/>
<path d="M21.1154 64H3.19338V16.8162H20.9851C35.5182 16.8162 44.577 25.6794 44.577 40.4081C44.577 55.1367 35.5182 64 21.1154 64ZM15.5759 53.4423H20.6592C27.9584 53.4423 32.0642 50.3792 32.0642 40.4081C32.0642 30.4369 27.9584 27.3739 20.3334 27.3739H15.5759V53.4423ZM65.5803 64.6517C54.3057 64.6517 47.3976 57.8087 47.3976 46.4038C47.3976 35.4551 54.3709 28.1559 65.3197 28.1559C75.8122 28.1559 82.7855 34.9337 82.7855 46.2735V49.2062H59.5846V49.6624C59.5846 53.3119 61.9308 55.9188 65.841 55.9188C68.513 55.9188 70.6637 54.7457 71.4457 52.7254H82.7203C81.4821 60.0246 75.2257 64.6517 65.5803 64.6517ZM59.5846 42.298H71.3806C71.3154 39.1047 68.8389 36.8888 65.5803 36.8888C62.2892 36.8888 59.6824 39.1372 59.5846 42.298ZM120.407 28.6121L108.481 64H94.2087L82.2824 28.6121H95.2514L101.182 52.2692H101.508L107.504 28.6121H120.407Z" fill="#007DF0"/>
<mask id="path-3-outside-1_462_482" maskUnits="userSpaceOnUse" x="124.46" y="15" width="36" height="51" fill="black">
<rect fill="white" x="124.46" y="15" width="36" height="51"/>
<path d="M135.973 48.2938C135.973 40.6036 137.798 38.2574 141.317 35.9764C144.25 34.0865 146.465 32.4572 146.465 29.7852C146.465 27.3739 144.51 25.7446 142.099 25.7446C139.557 25.7446 137.341 27.6345 137.276 30.4369H125.806C125.936 20.4006 133.301 16.1644 142.164 16.1644C151.94 16.1644 159.109 20.5309 159.109 29.1335C159.109 34.673 156.111 37.9967 151.614 40.6036C148.225 42.6239 146.531 44.5139 146.531 48.2938V49.3365H135.973V48.2938ZM141.382 64.7169C137.863 64.7169 134.995 61.9145 135.06 58.3953C134.995 54.9412 137.863 52.1389 141.382 52.1389C144.706 52.1389 147.704 54.9412 147.704 58.3953C147.704 61.9145 144.706 64.7169 141.382 64.7169Z"/>
</mask>
<path d="M141.317 35.9764L140.775 35.1359L140.773 35.1373L141.317 35.9764ZM137.276 30.4369V31.4369H138.253L138.276 30.4602L137.276 30.4369ZM125.806 30.4369L124.806 30.4239L124.793 31.4369H125.806V30.4369ZM151.614 40.6036L151.112 39.7384L151.102 39.7446L151.614 40.6036ZM146.531 49.3365V50.3365H147.531V49.3365H146.531ZM135.973 49.3365H134.973V50.3365H135.973V49.3365ZM135.06 58.3953L136.06 58.4138L136.061 58.3951L136.06 58.3764L135.06 58.3953ZM136.973 48.2938C136.973 44.5084 137.426 42.178 138.223 40.5459C139.006 38.9463 140.171 37.9111 141.861 36.8156L140.773 35.1373C138.944 36.3228 137.437 37.6012 136.427 39.6674C135.432 41.7012 134.973 44.3889 134.973 48.2938H136.973ZM141.859 36.817C143.316 35.8776 144.703 34.9381 145.719 33.8596C146.763 32.7506 147.465 31.4417 147.465 29.7852H145.465C145.465 30.8007 145.06 31.6424 144.263 32.4885C143.437 33.3652 142.25 34.1853 140.775 35.1359L141.859 36.817ZM147.465 29.7852C147.465 26.722 144.957 24.7446 142.099 24.7446V26.7446C144.063 26.7446 145.465 28.0257 145.465 29.7852H147.465ZM142.099 24.7446C139.055 24.7446 136.355 27.0279 136.276 30.4137L138.276 30.4602C138.328 28.2411 140.059 26.7446 142.099 26.7446V24.7446ZM137.276 29.4369H125.806V31.4369H137.276V29.4369ZM126.806 30.4499C126.868 25.7011 128.625 22.4323 131.325 20.3255C134.061 18.1914 137.875 17.1644 142.164 17.1644V15.1644C137.59 15.1644 133.29 16.2555 130.095 18.7486C126.865 21.2689 124.875 25.1363 124.806 30.4239L126.806 30.4499ZM142.164 17.1644C146.921 17.1644 150.929 18.2293 153.718 20.2349C156.468 22.2117 158.109 25.1502 158.109 29.1335H160.109C160.109 24.5142 158.165 20.9681 154.886 18.611C151.647 16.2828 147.183 15.1644 142.164 15.1644V17.1644ZM158.109 29.1335C158.109 31.7064 157.418 33.7179 156.232 35.3898C155.034 37.0793 153.292 38.475 151.112 39.7384L152.115 41.4687C154.433 40.1254 156.438 38.5558 157.863 36.5468C159.301 34.5202 160.109 32.1001 160.109 29.1335H158.109ZM151.102 39.7446C149.368 40.7784 147.953 41.8423 146.985 43.2113C145.996 44.6095 145.531 46.2397 145.531 48.2938H147.531C147.531 46.568 147.912 45.3632 148.618 44.3664C149.344 43.3403 150.471 42.4491 152.126 41.4625L151.102 39.7446ZM145.531 48.2938V49.3365H147.531V48.2938H145.531ZM146.531 48.3365H135.973V50.3365H146.531V48.3365ZM136.973 49.3365V48.2938H134.973V49.3365H136.973ZM141.382 63.7169C138.398 63.7169 136.006 61.3494 136.06 58.4138L134.061 58.3768C133.985 62.4797 137.328 65.7169 141.382 65.7169V63.7169ZM136.06 58.3764C136.006 55.5132 138.391 53.1389 141.382 53.1389V51.1389C137.335 51.1389 133.984 54.3692 134.061 58.4142L136.06 58.3764ZM141.382 53.1389C144.18 53.1389 146.704 55.5201 146.704 58.3953H148.704C148.704 54.3624 145.231 51.1389 141.382 51.1389V53.1389ZM146.704 58.3953C146.704 61.3424 144.174 63.7169 141.382 63.7169V65.7169C145.238 65.7169 148.704 62.4867 148.704 58.3953H146.704Z" fill="#007DF0" mask="url(#path-3-outside-1_462_482)"/>
<mask id="path-5-outside-2_462_482" maskUnits="userSpaceOnUse" x="307.037" y="15" width="36" height="51" fill="black">
<rect fill="white" x="307.037" y="15" width="36" height="51"/>
<path d="M318.549 48.2938C318.549 40.6036 320.374 38.2574 323.893 35.9764C326.826 34.0865 329.042 32.4572 329.042 29.7852C329.042 27.3739 327.087 25.7446 324.676 25.7446C322.134 25.7446 319.918 27.6345 319.853 30.4369H308.383C308.513 20.4006 315.877 16.1644 324.741 16.1644C334.516 16.1644 341.685 20.5309 341.685 29.1335C341.685 34.673 338.687 37.9967 334.191 40.6036C330.802 42.6239 329.107 44.5139 329.107 48.2938V49.3365H318.549V48.2938ZM323.959 64.7169C320.439 64.7169 317.572 61.9145 317.637 58.3953C317.572 54.9412 320.439 52.1389 323.959 52.1389C327.282 52.1389 330.28 54.9412 330.28 58.3953C330.28 61.9145 327.282 64.7169 323.959 64.7169Z"/>
</mask>
<path d="M323.893 35.9764L323.352 35.1359L323.35 35.1373L323.893 35.9764ZM319.853 30.4369V31.4369H320.83L320.853 30.4602L319.853 30.4369ZM308.383 30.4369L307.383 30.4239L307.37 31.4369H308.383V30.4369ZM334.191 40.6036L333.689 39.7384L333.678 39.7446L334.191 40.6036ZM329.107 49.3365V50.3365H330.107V49.3365H329.107ZM318.549 49.3365H317.549V50.3365H318.549V49.3365ZM317.637 58.3953L318.637 58.4138L318.637 58.3951L318.637 58.3764L317.637 58.3953ZM319.549 48.2938C319.549 44.5084 320.002 42.178 320.8 40.5459C321.582 38.9463 322.747 37.9111 324.437 36.8156L323.35 35.1373C321.521 36.3228 320.014 37.6012 319.003 39.6674C318.009 41.7012 317.549 44.3889 317.549 48.2938H319.549ZM324.435 36.817C325.893 35.8776 327.28 34.9381 328.296 33.8596C329.34 32.7506 330.042 31.4417 330.042 29.7852H328.042C328.042 30.8007 327.636 31.6424 326.839 32.4885C326.014 33.3652 324.827 34.1853 323.352 35.1359L324.435 36.817ZM330.042 29.7852C330.042 26.722 327.534 24.7446 324.676 24.7446V26.7446C326.64 26.7446 328.042 28.0257 328.042 29.7852H330.042ZM324.676 24.7446C321.632 24.7446 318.932 27.0279 318.853 30.4137L320.853 30.4602C320.904 28.2411 322.636 26.7446 324.676 26.7446V24.7446ZM319.853 29.4369H308.383V31.4369H319.853V29.4369ZM309.383 30.4499C309.444 25.7011 311.202 22.4323 313.902 20.3255C316.637 18.1914 320.452 17.1644 324.741 17.1644V15.1644C320.167 15.1644 315.867 16.2555 312.672 18.7486C309.442 21.2689 307.452 25.1363 307.383 30.4239L309.383 30.4499ZM324.741 17.1644C329.498 17.1644 333.505 18.2293 336.295 20.2349C339.045 22.2117 340.685 25.1502 340.685 29.1335H342.685C342.685 24.5142 340.741 20.9681 337.463 18.611C334.224 16.2828 329.759 15.1644 324.741 15.1644V17.1644ZM340.685 29.1335C340.685 31.7064 339.994 33.7179 338.808 35.3898C337.61 37.0793 335.869 38.475 333.689 39.7384L334.692 41.4687C337.009 40.1254 339.015 38.5558 340.44 36.5468C341.877 34.5202 342.685 32.1001 342.685 29.1335H340.685ZM333.678 39.7446C331.944 40.7784 330.53 41.8423 329.562 43.2113C328.572 44.6095 328.107 46.2397 328.107 48.2938H330.107C330.107 46.568 330.489 45.3632 331.194 44.3664C331.92 43.3403 333.048 42.4491 334.703 41.4625L333.678 39.7446ZM328.107 48.2938V49.3365H330.107V48.2938H328.107ZM329.107 48.3365H318.549V50.3365H329.107V48.3365ZM319.549 49.3365V48.2938H317.549V49.3365H319.549ZM323.959 63.7169C320.974 63.7169 318.583 61.3494 318.637 58.4138L316.637 58.3768C316.561 62.4797 319.904 65.7169 323.959 65.7169V63.7169ZM318.637 58.3764C318.583 55.5132 320.967 53.1389 323.959 53.1389V51.1389C319.912 51.1389 316.561 54.3692 316.637 58.4142L318.637 58.3764ZM323.959 53.1389C326.757 53.1389 329.28 55.5201 329.28 58.3953H331.28C331.28 54.3624 327.808 51.1389 323.959 51.1389V53.1389ZM329.28 58.3953C329.28 61.3424 326.75 63.7169 323.959 63.7169V65.7169C327.815 65.7169 331.28 62.4867 331.28 58.3953H329.28Z" fill="#007DF0" mask="url(#path-5-outside-2_462_482)"/>
</svg>
