<svg width="339" height="52" viewBox="0 0 339 52" fill="none" xmlns="http://www.w3.org/2000/svg">
<path d="M173.989 51L160.108 3.81615H173.924L180.572 33.3386H180.963L188.718 3.81615H199.667L207.487 33.469H207.878L214.526 3.81615H228.342L214.461 51H202.534L194.388 24.0192H193.997L185.85 51H173.989ZM230.706 51V15.6121H243.024V51H230.706ZM236.833 11.767C233.444 11.767 230.706 9.22535 230.706 6.09714C230.706 2.96893 233.444 0.427255 236.833 0.427255C240.221 0.427255 242.959 2.96893 242.959 6.09714C242.959 9.22535 240.221 11.767 236.833 11.767ZM247.604 51V3.81615H259.921V27.7339H260.378L269.306 15.6121H283.187L271.066 31.1228L283.578 51H269.436L261.942 38.2916L259.921 40.7681V51H247.604ZM284.705 51V15.6121H297.022V51H284.705ZM290.831 11.767C287.442 11.767 284.705 9.22535 284.705 6.09714C284.705 2.96893 287.442 0.427255 290.831 0.427255C294.22 0.427255 296.957 2.96893 296.957 6.09714C296.957 9.22535 294.22 11.767 290.831 11.767Z" fill="#007CEE"/>
<path d="M18.1154 51H0.193382V3.81615H17.9851C32.5182 3.81615 41.577 12.6794 41.577 27.4081C41.577 42.1367 32.5182 51 18.1154 51ZM12.5759 40.4423H17.6592C24.9584 40.4423 29.0642 37.3792 29.0642 27.4081C29.0642 17.4369 24.9584 14.3739 17.3334 14.3739H12.5759V40.4423ZM62.5803 51.6517C51.3057 51.6517 44.3976 44.8087 44.3976 33.4038C44.3976 22.4551 51.3709 15.1559 62.3197 15.1559C72.8122 15.1559 79.7855 21.9337 79.7855 33.2735V36.2062H56.5846V36.6624C56.5846 40.3119 58.9308 42.9188 62.841 42.9188C65.513 42.9188 67.6637 41.7457 68.4457 39.7254H79.7203C78.4821 47.0246 72.2257 51.6517 62.5803 51.6517ZM56.5846 29.298H68.3806C68.3154 26.1047 65.8389 23.8888 62.5803 23.8888C59.2892 23.8888 56.6824 26.1372 56.5846 29.298ZM117.407 15.6121L105.481 51H91.2087L79.2824 15.6121H92.2514L98.182 39.2692H98.5078L104.504 15.6121H117.407Z" fill="#007CEE"/>
<mask id="path-3-outside-1_0_1" maskUnits="userSpaceOnUse" x="121.46" y="2" width="36" height="51" fill="black">
<rect fill="white" x="121.46" y="2" width="36" height="51"/>
<path d="M132.973 35.2938C132.973 27.6036 134.798 25.2574 138.317 22.9764C141.25 21.0865 143.465 19.4572 143.465 16.7852C143.465 14.3739 141.51 12.7446 139.099 12.7446C136.557 12.7446 134.341 14.6345 134.276 17.4369H122.806C122.936 7.40056 130.301 3.16444 139.164 3.16444C148.94 3.16444 156.109 7.5309 156.109 16.1335C156.109 21.673 153.111 24.9967 148.614 27.6036C145.225 29.6239 143.531 31.5139 143.531 35.2938V36.3365H132.973V35.2938ZM138.382 51.7169C134.863 51.7169 131.995 48.9145 132.06 45.3953C131.995 41.9412 134.863 39.1389 138.382 39.1389C141.706 39.1389 144.704 41.9412 144.704 45.3953C144.704 48.9145 141.706 51.7169 138.382 51.7169Z"/>
</mask>
<path d="M138.317 22.9764L137.775 22.1359L137.773 22.1373L138.317 22.9764ZM134.276 17.4369V18.4369H135.253L135.276 17.4602L134.276 17.4369ZM122.806 17.4369L121.806 17.4239L121.793 18.4369H122.806V17.4369ZM148.614 27.6036L148.112 26.7384L148.102 26.7446L148.614 27.6036ZM143.531 36.3365V37.3365H144.531V36.3365H143.531ZM132.973 36.3365H131.973V37.3365H132.973V36.3365ZM132.06 45.3953L133.06 45.4138L133.061 45.3951L133.06 45.3764L132.06 45.3953ZM133.973 35.2938C133.973 31.5084 134.426 29.178 135.223 27.5459C136.006 25.9463 137.171 24.9111 138.861 23.8156L137.773 22.1373C135.944 23.3228 134.437 24.6012 133.427 26.6674C132.432 28.7012 131.973 31.3889 131.973 35.2938H133.973ZM138.859 23.817C140.316 22.8776 141.703 21.9381 142.719 20.8596C143.763 19.7506 144.465 18.4417 144.465 16.7852H142.465C142.465 17.8007 142.06 18.6424 141.263 19.4885C140.437 20.3652 139.25 21.1853 137.775 22.1359L138.859 23.817ZM144.465 16.7852C144.465 13.722 141.957 11.7446 139.099 11.7446V13.7446C141.063 13.7446 142.465 15.0257 142.465 16.7852H144.465ZM139.099 11.7446C136.055 11.7446 133.355 14.028 133.276 17.4137L135.276 17.4602C135.328 15.2411 137.059 13.7446 139.099 13.7446V11.7446ZM134.276 16.4369H122.806V18.4369H134.276V16.4369ZM123.806 17.4499C123.868 12.7011 125.625 9.43234 128.325 7.32546C131.061 5.19139 134.875 4.16444 139.164 4.16444V2.16444C134.59 2.16444 130.29 3.25554 127.095 5.74862C123.865 8.26888 121.875 12.1363 121.806 17.4239L123.806 17.4499ZM139.164 4.16444C143.921 4.16444 147.929 5.22934 150.718 7.23494C153.468 9.21175 155.109 12.1502 155.109 16.1335H157.109C157.109 11.5142 155.165 7.96811 151.886 5.61104C148.647 3.28277 144.183 2.16444 139.164 2.16444V4.16444ZM155.109 16.1335C155.109 18.7064 154.418 20.7179 153.232 22.3898C152.034 24.0793 150.292 25.4749 148.112 26.7384L149.115 28.4687C151.433 27.1254 153.438 25.5558 154.863 23.5468C156.301 21.5202 157.109 19.1001 157.109 16.1335H155.109ZM148.102 26.7446C146.368 27.7784 144.953 28.8423 143.985 30.2113C142.996 31.6095 142.531 33.2397 142.531 35.2938H144.531C144.531 33.568 144.912 32.3632 145.618 31.3664C146.344 30.3403 147.471 29.4491 149.126 28.4625L148.102 26.7446ZM142.531 35.2938V36.3365H144.531V35.2938H142.531ZM143.531 35.3365H132.973V37.3365H143.531V35.3365ZM133.973 36.3365V35.2938H131.973V36.3365H133.973ZM138.382 50.7169C135.398 50.7169 133.006 48.3494 133.06 45.4138L131.061 45.3768C130.985 49.4797 134.328 52.7169 138.382 52.7169V50.7169ZM133.06 45.3764C133.006 42.5132 135.391 40.1389 138.382 40.1389V38.1389C134.335 38.1389 130.984 41.3692 131.061 45.4142L133.06 45.3764ZM138.382 40.1389C141.18 40.1389 143.704 42.5201 143.704 45.3953H145.704C145.704 41.3624 142.231 38.1389 138.382 38.1389V40.1389ZM143.704 45.3953C143.704 48.3424 141.174 50.7169 138.382 50.7169V52.7169C142.238 52.7169 145.704 49.4867 145.704 45.3953H143.704Z" fill="#007CEE" mask="url(#path-3-outside-1_0_1)"/>
<mask id="path-5-outside-2_0_1" maskUnits="userSpaceOnUse" x="304.037" y="2" width="36" height="51" fill="black">
<rect fill="white" x="304.037" y="2" width="36" height="51"/>
<path d="M315.549 35.2938C315.549 27.6036 317.374 25.2574 320.893 22.9764C323.826 21.0865 326.042 19.4572 326.042 16.7852C326.042 14.3739 324.087 12.7446 321.676 12.7446C319.134 12.7446 316.918 14.6345 316.853 17.4369H305.383C305.513 7.40056 312.877 3.16444 321.741 3.16444C331.516 3.16444 338.685 7.5309 338.685 16.1335C338.685 21.673 335.687 24.9967 331.191 27.6036C327.802 29.6239 326.107 31.5139 326.107 35.2938V36.3365H315.549V35.2938ZM320.959 51.7169C317.439 51.7169 314.572 48.9145 314.637 45.3953C314.572 41.9412 317.439 39.1389 320.959 39.1389C324.282 39.1389 327.28 41.9412 327.28 45.3953C327.28 48.9145 324.282 51.7169 320.959 51.7169Z"/>
</mask>
<path d="M320.893 22.9764L320.352 22.1359L320.35 22.1373L320.893 22.9764ZM316.853 17.4369V18.4369H317.83L317.853 17.4602L316.853 17.4369ZM305.383 17.4369L304.383 17.4239L304.37 18.4369H305.383V17.4369ZM331.191 27.6036L330.689 26.7384L330.678 26.7446L331.191 27.6036ZM326.107 36.3365V37.3365H327.107V36.3365H326.107ZM315.549 36.3365H314.549V37.3365H315.549V36.3365ZM314.637 45.3953L315.637 45.4138L315.637 45.3951L315.637 45.3764L314.637 45.3953ZM316.549 35.2938C316.549 31.5084 317.002 29.178 317.8 27.5459C318.582 25.9463 319.747 24.9111 321.437 23.8156L320.35 22.1373C318.521 23.3228 317.014 24.6012 316.003 26.6674C315.009 28.7012 314.549 31.3889 314.549 35.2938H316.549ZM321.435 23.817C322.893 22.8776 324.28 21.9381 325.296 20.8596C326.34 19.7506 327.042 18.4417 327.042 16.7852H325.042C325.042 17.8007 324.636 18.6424 323.839 19.4885C323.014 20.3652 321.827 21.1853 320.352 22.1359L321.435 23.817ZM327.042 16.7852C327.042 13.722 324.534 11.7446 321.676 11.7446V13.7446C323.64 13.7446 325.042 15.0257 325.042 16.7852H327.042ZM321.676 11.7446C318.632 11.7446 315.932 14.028 315.853 17.4137L317.853 17.4602C317.904 15.2411 319.636 13.7446 321.676 13.7446V11.7446ZM316.853 16.4369H305.383V18.4369H316.853V16.4369ZM306.383 17.4499C306.444 12.7011 308.202 9.43234 310.902 7.32546C313.637 5.19139 317.452 4.16444 321.741 4.16444V2.16444C317.167 2.16444 312.867 3.25554 309.672 5.74862C306.442 8.26888 304.452 12.1363 304.383 17.4239L306.383 17.4499ZM321.741 4.16444C326.498 4.16444 330.505 5.22934 333.295 7.23494C336.045 9.21175 337.685 12.1502 337.685 16.1335H339.685C339.685 11.5142 337.741 7.96811 334.463 5.61104C331.224 3.28277 326.759 2.16444 321.741 2.16444V4.16444ZM337.685 16.1335C337.685 18.7064 336.994 20.7179 335.808 22.3898C334.61 24.0793 332.869 25.4749 330.689 26.7384L331.692 28.4687C334.009 27.1254 336.015 25.5558 337.44 23.5468C338.877 21.5202 339.685 19.1001 339.685 16.1335H337.685ZM330.678 26.7446C328.944 27.7784 327.53 28.8423 326.562 30.2113C325.572 31.6095 325.107 33.2397 325.107 35.2938H327.107C327.107 33.568 327.489 32.3632 328.194 31.3664C328.92 30.3403 330.048 29.4491 331.703 28.4625L330.678 26.7446ZM325.107 35.2938V36.3365H327.107V35.2938H325.107ZM326.107 35.3365H315.549V37.3365H326.107V35.3365ZM316.549 36.3365V35.2938H314.549V36.3365H316.549ZM320.959 50.7169C317.974 50.7169 315.583 48.3494 315.637 45.4138L313.637 45.3768C313.561 49.4797 316.904 52.7169 320.959 52.7169V50.7169ZM315.637 45.3764C315.583 42.5132 317.967 40.1389 320.959 40.1389V38.1389C316.912 38.1389 313.561 41.3692 313.637 45.4142L315.637 45.3764ZM320.959 40.1389C323.757 40.1389 326.28 42.5201 326.28 45.3953H328.28C328.28 41.3624 324.808 38.1389 320.959 38.1389V40.1389ZM326.28 45.3953C326.28 48.3424 323.75 50.7169 320.959 50.7169V52.7169C324.815 52.7169 328.28 49.4867 328.28 45.3953H326.28Z" fill="#007CEE" mask="url(#path-5-outside-2_0_1)"/>
</svg>
